<svg width="16" height="16" viewBox="0 0 16 16" fill="none" xmlns="http://www.w3.org/2000/svg">
<path d="M15.9331 9.76722L13.2374 5.27413L15.6566 4.60213C15.9061 4.53285 16.0521 4.27447 15.9828 4.02503C15.9135 3.77559 15.6551 3.62953 15.4057 3.69884L12.3985 4.53416C12.3983 4.53422 12.3981 4.53428 12.3978 4.53434L8.46877 5.62572V0.46875C8.46877 0.209875 8.25889 0 8.00002 0C7.74114 0 7.53127 0.209875 7.53127 0.46875V5.88613L3.36118 7.04444C3.36096 7.0445 3.36074 7.04456 3.36052 7.0446L0.343425 7.88266C0.0939564 7.95194 -0.0520436 8.21031 0.0172064 8.45975C0.0748627 8.66722 0.263269 8.80316 0.468581 8.80316C0.510113 8.80316 0.552363 8.7976 0.5943 8.78594L2.47511 8.2635L0.0669876 12.2775C0.0233001 12.3504 0.000175152 12.4338 0.000175152 12.5187C0.000175152 14.4382 1.56183 15.9998 3.48133 15.9998C5.40089 15.9998 6.96252 14.4382 6.96252 12.5187C6.96252 12.4338 6.93943 12.3504 6.89571 12.2775L4.20002 7.78441L11.5124 5.75325L9.1043 9.76722C9.06061 9.84007 9.03749 9.92344 9.03749 10.0084C9.03749 11.9279 10.5991 13.4895 12.5186 13.4895C13.4485 13.4895 14.3227 13.1274 14.9802 12.4698C15.6378 11.8123 15.9999 10.9382 15.9998 10.0083C15.9999 9.92341 15.9768 9.84003 15.9331 9.76722ZM3.48133 15.0623C2.23892 15.0623 1.20218 14.1667 0.981456 12.9874H5.98121C5.76052 14.1667 4.72377 15.0623 3.48133 15.0623ZM5.66596 12.0499H1.29677L3.48133 8.40866L5.66596 12.0499ZM12.5186 5.89838L14.7033 9.5396H10.3341L12.5186 5.89838ZM12.5187 12.552C11.2763 12.552 10.2395 11.6564 10.0188 10.4771H15.0186C14.7979 11.6564 13.7611 12.552 12.5187 12.552Z" fill="#8C3213"/>
</svg>
